<svg xmlns="http://www.w3.org/2000/svg" width="27" height="27" fill="none"><rect id="backgroundrect" width="100%" height="100%" x="0" y="0" fill="none" stroke="none" style="" class=""/>              <g class="currentLayer" style=""><title>Layer 1</title><path d="M20.348898902773858,11.702970483064652 C19.969898902773856,12.084270483064651 19.679698902773858,12.544470483064652 19.498898902773856,13.050670483064652 C19.31809890277386,13.556970483064651 19.251198902773858,14.096870483064652 19.30289890277386,14.631970483064652 L19.284898902773858,14.613970483064653 C19.338098902773858,15.24387048306465 19.253098902773857,15.877670483064653 19.03599890277386,16.47137048306465 C18.818898902773856,17.064970483064652 18.47489890277386,17.604070483064653 18.027998902773856,18.051070483064652 C17.580998902773857,18.497970483064652 17.041898902773855,18.842070483064653 16.448198902773857,19.05907048306465 C15.85459890277386,19.27617048306465 15.220698902773858,19.36117048306465 14.590898902773858,19.30797048306465 L14.608898902773856,19.32597048306465 C13.855498902773856,19.25587048306465 13.098798902773858,19.419770483064653 12.441898902773858,19.79547048306465 C11.785098902773857,20.171170483064653 11.260098902773857,20.740270483064652 10.938598902773856,21.42527048306465 C10.617098902773858,22.110270483064653 10.514598902773857,22.87767048306465 10.645198902773856,23.62307048306465 C10.775898902773857,24.368370483064652 11.133198902773858,25.055270483064653 11.668498902773857,25.59007048306465 C12.203798902773856,26.12487048306465 12.890998902773857,26.48157048306465 13.636398902773857,26.61147048306465 C14.381898902773859,26.741470483064653 15.149198902773858,26.63827048306465 15.833898902773857,26.316170483064653 C16.518598902773856,25.99397048306465 17.087198902773856,25.468570483064653 17.462298902773856,24.81137048306465 C17.837398902773856,24.15417048306465 18.000698902773856,23.397370483064652 17.929898902773857,22.643970483064653 L17.948898902773855,22.66197048306465 C17.89569890277386,22.03217048306465 17.980598902773856,21.39827048306465 18.19769890277386,20.80457048306465 C18.414798902773857,20.210970483064653 18.75889890277386,19.67187048306465 19.205798902773857,19.224870483064652 C19.652798902773856,18.777970483064653 20.191898902773858,18.433870483064652 20.785498902773856,18.216870483064653 C21.379198902773858,17.99977048306465 22.01299890277386,17.91477048306465 22.642898902773858,17.967970483064654 L22.623898902773856,17.94997048306465 C23.239298902773857,18.005270483064653 23.858798902773856,17.904370483064653 24.424898902773858,17.65657048306465 C24.990898902773857,17.40877048306465 25.485298902773856,17.022070483064653 25.86209890277386,16.53237048306465 C26.238898902773858,16.04267048306465 26.486098902773858,15.465670483064653 26.580498902773858,14.855070483064651 C26.674998902773858,14.244370483064651 26.61379890277386,13.619770483064652 26.402598902773857,13.038970483064652 C26.19139890277386,12.458270483064652 25.836998902773857,11.940270483064651 25.372298902773856,11.532970483064652 C24.907598902773856,11.125670483064651 24.347598902773857,10.842270483064652 23.744198902773856,10.709070483064652 C23.140798902773856,10.575870483064651 22.51349890277386,10.597070483064652 21.920498902773858,10.770770483064652 C21.32749890277386,10.944570483064652 20.787998902773857,11.26517048306465 20.35189890277386,11.702970483064652 H20.348898902773858 z" class="ccompli2 selected" fill="#dcdcdd" id="svg_1" fill-opacity="1"/><path d="M12.971898902773857,16.967970483064654 L12.952898902773857,16.94997048306465 C13.488198902773856,17.003870483064652 14.028798902773858,16.938170483064653 14.535698902773856,16.75757048306465 C15.042498902773858,16.576970483064652 15.502898902773858,16.286070483064652 15.883498902773859,15.90577048306465 C16.263998902773857,15.525470483064652 16.555398902773856,15.065270483064651 16.736298902773857,14.558570483064653 C16.917298902773858,14.051870483064652 16.983398902773857,13.511370483064649 16.929898902773857,12.975970483064652 L16.948898902773855,12.993970483064652 C16.89569890277386,12.364070483064651 16.980698902773856,11.730270483064652 17.19769890277386,11.136570483064652 C17.414798902773857,10.542970483064652 17.75889890277386,10.003870483064652 18.205798902773857,9.556870483064651 C18.652798902773856,9.109970483064652 19.191898902773858,8.765870483064651 19.785498902773856,8.548870483064652 C20.379198902773858,8.331730483064652 21.01299890277386,8.246800483064652 21.642898902773858,8.299970483064651 L21.623898902773856,8.28197048306465 C22.37739890277386,8.352770483064651 23.134298902773857,8.189330483064651 23.791498902773856,7.814070483064652 C24.448798902773856,7.4388104830646515 24.974198902773857,6.869940483064651 25.296198902773856,6.185070483064652 C25.61819890277386,5.5002104830646505 25.721098902773857,4.732680483064652 25.59089890277386,3.9871704830646513 C25.460698902773856,3.241660483064652 25.103698902773857,2.5544804830646513 24.568498902773857,2.0193404830646515 C24.033398902773857,1.4842104830646514 23.346198902773857,1.1271704830646514 22.600698902773857,0.9969504830646514 C21.855198902773857,0.8667204830646515 21.08769890277386,0.9696304830646519 20.402798902773856,1.2916504830646518 C19.717898902773857,1.6136604830646517 19.149098902773858,2.1391104830646515 18.77379890277386,2.796320483064651 C18.398498902773856,3.4535204830646515 18.235098902773856,4.2104904830646515 18.30589890277386,4.963970483064651 L18.28789890277386,4.944970483064652 C18.34119890277386,5.5748604830646515 18.256398902773856,6.2088004830646515 18.039398902773858,6.802520483064651 C17.822398902773855,7.396240483064652 17.478298902773858,7.935430483064652 17.03139890277386,8.382470483064651 C16.584398902773856,8.829370483064652 16.04519890277386,9.173470483064651 15.451498902773857,9.390470483064652 C14.857698902773858,9.60747048306465 14.223798902773858,9.692270483064652 13.593898902773857,9.638970483064652 L13.611898902773858,9.657970483064652 C13.076598902773856,9.604070483064651 12.535898902773857,9.669770483064651 12.029098902773857,9.850370483064651 C11.522298902773857,10.030870483064652 11.061898902773857,10.321870483064652 10.681298902773857,10.702170483064652 C10.300698902773858,11.082470483064652 10.009398902773857,11.54267048306465 9.828398902773857,12.049370483064651 C9.647498902773858,12.556070483064651 9.581398902773858,13.096570483064651 9.634898902773857,13.631970483064652 L9.616898902773857,13.613970483064653 C9.669898902773857,14.243770483064651 9.584798902773857,14.877570483064652 9.367698902773856,15.47117048306465 C9.150498902773856,16.064670483064653 8.806498902773857,16.60377048306465 8.359598902773858,17.05067048306465 C7.912658902773858,17.497570483064653 7.373618902773858,17.84157048306465 6.780058902773858,18.058770483064652 C6.186498902773858,18.27587048306465 5.552708902773857,18.36097048306465 4.922898902773857,18.30797048306465 L4.940898902773857,18.32597048306465 C4.1874189027738575,18.255170483064653 3.4304489027738567,18.418570483064652 2.7732389027738575,18.79387048306465 C2.116038902773857,19.16917048306465 1.5905889027738573,19.73797048306465 1.2685789027738574,20.422870483064653 C0.946558902773857,21.10777048306465 0.8436389027738576,21.87527048306465 0.9738689027738568,22.62077048306465 C1.104098902773857,23.366270483064653 1.461138902773857,24.05347048306465 1.9962689027738572,24.58857048306465 C2.5314089027738573,25.12377048306465 3.218588902773857,25.480770483064653 3.9640989027738573,25.61097048306465 C4.709608902773857,25.74117048306465 5.4771389027738575,25.63827048306465 6.162008902773858,25.316270483064653 C6.846868902773856,24.994270483064653 7.415738902773857,24.468870483064652 7.7909989027738575,23.811670483064653 C8.166298902773857,23.154370483064653 8.329698902773858,22.39747048306465 8.258898902773858,21.643970483064653 L8.277898902773858,21.66197048306465 C8.224698902773858,21.03207048306465 8.309698902773857,20.39827048306465 8.526798902773857,19.80457048306465 C8.743798902773857,19.210970483064653 9.087898902773857,18.67187048306465 9.534798902773858,18.224870483064652 C9.981798902773857,17.777970483064653 10.520898902773856,17.433870483064652 11.114498902773857,17.216870483064653 C11.708198902773857,16.99977048306465 12.341998902773858,16.91477048306465 12.971898902773857,16.967970483064654 V16.967970483064654 z" class="ccompli1" fill="#dcdcdd" id="svg_2" fill-opacity="1"/><path d="M6.269898902773858,14.960970483064653 C6.6489189027738576,14.579770483064653 6.939098902773858,14.119570483064651 7.119738902773857,13.613270483064651 C7.300378902773859,13.106970483064652 7.367018902773857,12.566970483064651 7.314898902773857,12.03197048306465 L7.333888902773857,12.049970483064651 C7.280688902773857,11.41997048306465 7.3656489027738585,10.785870483064652 7.582858902773857,10.19207048306465 C7.800068902773857,9.59827048306465 8.144298902773857,9.059070483064652 8.591498902773857,8.612070483064652 C9.038698902773858,8.165090483064652 9.577998902773857,7.821100483064651 10.171898902773858,7.604150483064652 C10.765798902773858,7.387190483064652 11.399898902773858,7.302490483064652 12.029898902773857,7.3559704830646515 L12.010898902773857,7.337970483064653 C12.764098902773856,7.408540483064652 13.520798902773857,7.245050483064652 14.177698902773859,6.869810483064651 C14.834598902773855,6.494580483064652 15.359698902773857,5.925850483064652 15.681598902773857,5.2412004830646515 C16.003398902773856,4.556540483064651 16.10619890277386,3.7892904830646517 15.975998902773856,3.0440604830646514 C15.845798902773858,2.2988304830646515 15.488798902773858,1.6119104830646513 14.953898902773858,1.0769704830646516 C14.418998902773858,0.5420304830646514 13.731998902773856,0.1851104830646518 12.986798902773858,0.05489048306465174 C12.241598902773857,-0.07533951693534835 11.474298902773857,0.027480483064651583 10.789698902773857,0.34930048306465167 C10.104998902773858,0.6711204830646519 9.536298902773858,1.1962904830646517 9.161098902773857,1.8531904830646515 C8.785798902773857,2.5100904830646513 8.622298902773856,3.2667504830646514 8.692898902773857,4.019970483064652 L8.674898902773858,4.001970483064651 C8.728098902773857,4.6318204830646525 8.643098902773858,5.2656904830646525 8.425998902773857,5.859330483064651 C8.208898902773857,6.452970483064652 7.864918902773857,6.992080483064651 7.417958902773858,7.439040483064652 C6.971008902773857,7.886000483064652 6.431888902773856,8.230030483064652 5.8382489027738576,8.447070483064651 C5.244608902773857,8.664170483064652 4.6107489027738575,8.74917048306465 3.9808989027738573,8.695970483064652 L3.998898902773857,8.713970483064651 C3.383468902773857,8.658770483064652 2.764058902773857,8.75987048306465 2.198078902773857,9.007770483064652 C1.632098902773857,9.255670483064652 1.137848902773857,9.64247048306465 0.7611389027738575,10.132270483064653 C0.38442890277385766,10.62197048306465 0.13744890277385707,11.198970483064652 0.04306890277385735,11.809570483064652 C-0.05130109722614278,12.420270483064652 0.009988902773857335,13.044870483064651 0.22125890277385724,13.625470483064651 C0.43252890277385736,14.206170483064652 0.7869589027738574,14.72407048306465 1.2516889027738571,15.13127048306465 C1.716418902773857,15.538570483064653 2.276418902773857,15.82187048306465 2.8797989027738575,15.955070483064652 C3.4831689027738575,16.08817048306465 4.110398902773857,16.06687048306465 4.703368902773857,15.893170483064651 C5.296328902773857,15.719370483064651 5.835828902773857,15.398770483064652 6.271888902773859,14.960970483064653 H6.269898902773858 z" class="ccustom" fill="#dcdcdd" id="svg_3" fill-opacity="1"/></g></svg>